<svg xmlns="http://www.w3.org/2000/svg" width="16" height="15.6" viewBox="0 0 16 15.6" preserveAspectRatio="xMinYMin meet"><path d="M8 0C3.58 0 0 3.58 0 8c0 3.53 2.29 6.53 5.47 7.59.4.07.55-.17.55-.39 0-.19-.01-.69-.01-1.36-2.23.48-2.69-1.07-2.69-1.07-.36-.92-.89-1.17-.89-1.17-.73-.5.05-.49.05-.49.8.06 1.23.82 1.23.82.71 1.22 1.87.87 2.33.66.07-.52.28-.87.51-1.07-1.78-.2-3.64-.89-3.64-3.95 0-.87.31-1.59.82-2.15-.09-.19-.37-1 .07-2.1 0 0 .67-.22 2.2.82.64-.18 1.32-.27 2-.27.68 0 1.36.09 2 .27 1.53-1.04 2.2-.82 2.2-.82.44 1.1.16 1.91.08 2.12.51.56.82 1.27.82 2.15 0 3.07-1.87 3.75-3.65 3.95.29.25.54.74.54 1.48 0 1.07-.01 1.93-.01 2.19 0 .21.14.46.55.38A8.004 8.004 0 0016 8c0-4.42-3.58-8-8-8z" fill-rule="evenodd" clip-rule="evenodd" fill="#181616"/></svg>